  <svg
      width="24"
      height="24"
      viewBox="0 0 24 24"
      fill="none"
      xmlns="http://www.w3.org/2000/svg"
    >
      <path
        d="M2.21973 3.21934C2.09272 3.34633 2.01549 3.51469 2.00209 3.6938C1.98869 3.87291 2.04002 4.05088 2.14673 4.19536L2.21973 4.27936L6.25378 8.31441C4.28679 9.69306 2.88263 11.7345 2.29874 14.0645C2.25371 14.2563 2.28597 14.4581 2.38854 14.6263C2.49111 14.7945 2.65575 14.9156 2.84688 14.9635C3.03801 15.0113 3.24027 14.982 3.40997 14.8819C3.57966 14.7818 3.70315 14.6189 3.75375 14.4285C4.27266 12.3605 5.55067 10.5634 7.33379 9.39442L9.14381 11.2044C8.42079 11.96 8.02239 12.9685 8.03392 14.0142C8.04545 15.0599 8.46601 16.0594 9.20551 16.7988C9.94501 17.5382 10.9446 17.9586 11.9903 17.9699C13.036 17.9813 14.0445 17.5827 14.7999 16.8595L20.7189 22.7796C20.8528 22.9138 21.0324 22.9923 21.2218 22.9995C21.4112 23.0066 21.5963 22.9418 21.7398 22.818C21.8833 22.6942 21.9747 22.5207 21.9955 22.3323C22.0163 22.144 21.965 21.9547 21.8519 21.8026L21.7789 21.7186L15.6659 15.6045L15.6669 15.6025L14.4669 14.4045L11.5968 11.5345H11.5988L8.7188 8.65741L8.7198 8.65541L7.58679 7.5254L3.27975 3.21934C3.13912 3.07889 2.94849 3 2.74974 3C2.55099 3 2.36036 3.07889 2.21973 3.21934ZM10.2038 12.2645L13.7389 15.8005C13.2673 16.2559 12.6358 16.5079 11.9803 16.5022C11.3248 16.4965 10.6978 16.2336 10.2343 15.7701C9.77075 15.3065 9.50782 14.6795 9.50212 14.024C9.49643 13.3685 9.74842 12.736 10.2038 12.2645ZM11.9998 6.49939C10.9998 6.49939 10.0298 6.64739 9.11081 6.92439L10.3478 8.16041C12.4874 7.73676 14.7079 8.15149 16.5504 9.31885C18.3928 10.4862 19.7162 12.3169 20.2469 14.4325C20.2987 14.6214 20.4224 14.7826 20.5915 14.8815C20.7606 14.9804 20.9617 15.0093 21.1518 14.9618C21.3419 14.9144 21.5058 14.7945 21.6087 14.6277C21.7115 14.461 21.7449 14.2606 21.7019 14.0695C21.1597 11.9069 19.9105 9.98749 18.1527 8.61599C16.3949 7.24448 14.2294 6.49952 11.9998 6.49939ZM12.1948 10.0094L15.9959 13.8095C15.9467 12.8174 15.5304 11.879 14.8279 11.1767C14.1255 10.4744 13.187 10.0583 12.1948 10.0094Z"
        fill="#7B7B7B"
      />
    </svg>